# xmcd
#
# Track frame offsets: 
#        150
#        30299
#        45631
#        65651
#        88507
#        115932
#        132914
#        154073
#        176834
#        197242
#        214964
#        235980
#        258515
#        282819
#        299568
#        305636
#        329154
#        352529
#
# Disc length: 4807 seconds
#
# Revision: 0
# Processed by: cddbd v1.5.2PL0 Copyright (c) Steve Scherf et al.
# Submitted via: ExactAudioCopy v0.95a5
#
DISCID=1612c512
DTITLE=Various Artist - Blues Instrumental - 2
DYEAR=2007
DGENRE=Blues
TTITLE0=Tango'd Up In The Blues - TOM PRINCIPATO
TTITLE1=Mississippi Stomp - RICK VITO
TTITLE2=Abigail - CHRIS AARON BAND
TTITLE3=Mister P.C. - PAUL CAMILLERI
TTITLE4=Dark Eyes - DUKE ROBILLARD
TTITLE5=Baritone Boogaloo - GREGOR HILDEN
TTITLE6=Pigalle 4 A M - NEAL BLACK
TTITLE7=Through Heaven's Eyes - SONNY BLACK and The DUKES
TTITLE8=Dinner At Woolfies - BLUES COMPANY
TTITLE9=Voodoo Lounge - T and MASSON
TTITLE10=King Me - HENRY COOPER
TTITLE11=After hours - IKE TURNER
TTITLE12=Checkin' Up on My Baby - GARY MOORE
TTITLE13=Thankful 'N Thoughtful - ROBERT RANDOLPH
TTITLE14=Raggin' the Strings - SONNY BLACK and The DUKES
TTITLE15=One more time - AMAR SUNDY
TTITLE16=Yesterdays - CHARLIE MUSSELWHITE
TTITLE17=Palm Trees Helicopters and Gasoline - JOE BONAMASSA
EXTD=
EXTT0=
EXTT1=
EXTT2=
EXTT3=
EXTT4=
EXTT5=
EXTT6=
EXTT7=
EXTT8=
EXTT9=
EXTT10=
EXTT11=
EXTT12=
EXTT13=
EXTT14=
EXTT15=
EXTT16=
EXTT17=
PLAYORDER=
